<?xml version="1.0" encoding="utf-8" standalone="no"?>
<!DOCTYPE svg PUBLIC "-//W3C//DTD SVG 1.1//EN"
  "http://www.w3.org/Graphics/SVG/1.1/DTD/svg11.dtd">
<svg xmlns:xlink="http://www.w3.org/1999/xlink" width="516.6pt" height="624.24pt" viewBox="0 0 516.6 624.24" xmlns="http://www.w3.org/2000/svg" version="1.1">
 <metadata>
  <rdf:RDF xmlns:dc="http://purl.org/dc/elements/1.1/" xmlns:cc="http://creativecommons.org/ns#" xmlns:rdf="http://www.w3.org/1999/02/22-rdf-syntax-ns#">
   <cc:Work>
    <dc:type rdf:resource="http://purl.org/dc/dcmitype/StillImage"/>
    <dc:date>2026-02-15T21:45:14.651179</dc:date>
    <dc:format>image/svg+xml</dc:format>
    <dc:creator>
     <cc:Agent>
      <dc:title>Matplotlib v3.7.5, https://matplotlib.org/</dc:title>
     </cc:Agent>
    </dc:creator>
   </cc:Work>
  </rdf:RDF>
 </metadata>
 <defs>
  <style type="text/css">*{stroke-linejoin: round; stroke-linecap: butt}</style>
 </defs>
 <g id="figure_1">
  <g id="patch_1">
   <path d="M 0 624.24 
L 516.6 624.24 
L 516.6 0 
L 0 0 
z
" style="fill: #ffffff"/>
  </g>
  <g id="axes_1">
   <g id="patch_2">
    <path d="M 82.53 90.36 
L 434.07 90.36 
L 434.07 23.832 
L 82.53 23.832 
z
" clip-path="url(#p7a6f4b4129)" style="fill: #1f77b4"/>
   </g>
   <g id="patch_3">
    <path d="M 82.53 184.608 
L 434.07 184.608 
L 434.07 118.08 
L 82.53 118.08 
z
" clip-path="url(#p7a6f4b4129)" style="fill: #1f77b4"/>
   </g>
   <g id="patch_4">
    <path d="M 82.53 278.856 
L 434.07 278.856 
L 434.07 212.328 
L 82.53 212.328 
z
" clip-path="url(#p7a6f4b4129)" style="fill: #1f77b4"/>
   </g>
   <g id="patch_5">
    <path d="M 82.53 373.104 
L 434.07 373.104 
L 434.07 306.576 
L 82.53 306.576 
z
" clip-path="url(#p7a6f4b4129)" style="fill: #1f77b4"/>
   </g>
   <g id="patch_6">
    <path d="M 82.53 467.352 
L 434.07 467.352 
L 434.07 400.824 
L 82.53 400.824 
z
" clip-path="url(#p7a6f4b4129)" style="fill: #1f77b4"/>
   </g>
   <g id="patch_7">
    <path d="M 82.53 561.6 
L 434.07 561.6 
L 434.07 495.072 
L 82.53 495.072 
z
" clip-path="url(#p7a6f4b4129)" style="fill: #1f77b4"/>
   </g>
   <g id="text_1">
    <!-- Fuente Externa -->
    <g transform="translate(220.303125 54.256469) scale(0.1 -0.1)">
     <defs>
      <path id="DejaVuSans-46" d="M 628 4666 
L 3309 4666 
L 3309 4134 
L 1259 4134 
L 1259 2759 
L 3109 2759 
L 3109 2228 
L 1259 2228 
L 1259 0 
L 628 0 
L 628 4666 
z
" transform="scale(0.015625)"/>
      <path id="DejaVuSans-75" d="M 544 1381 
L 544 3500 
L 1119 3500 
L 1119 1403 
Q 1119 906 1312 657 
Q 1506 409 1894 409 
Q 2359 409 2629 706 
Q 2900 1003 2900 1516 
L 2900 3500 
L 3475 3500 
L 3475 0 
L 2900 0 
L 2900 538 
Q 2691 219 2414 64 
Q 2138 -91 1772 -91 
Q 1169 -91 856 284 
Q 544 659 544 1381 
z
M 1991 3584 
L 1991 3584 
z
" transform="scale(0.015625)"/>
      <path id="DejaVuSans-65" d="M 3597 1894 
L 3597 1613 
L 953 1613 
Q 991 1019 1311 708 
Q 1631 397 2203 397 
Q 2534 397 2845 478 
Q 3156 559 3463 722 
L 3463 178 
Q 3153 47 2828 -22 
Q 2503 -91 2169 -91 
Q 1331 -91 842 396 
Q 353 884 353 1716 
Q 353 2575 817 3079 
Q 1281 3584 2069 3584 
Q 2775 3584 3186 3129 
Q 3597 2675 3597 1894 
z
M 3022 2063 
Q 3016 2534 2758 2815 
Q 2500 3097 2075 3097 
Q 1594 3097 1305 2825 
Q 1016 2553 972 2059 
L 3022 2063 
z
" transform="scale(0.015625)"/>
      <path id="DejaVuSans-6e" d="M 3513 2113 
L 3513 0 
L 2938 0 
L 2938 2094 
Q 2938 2591 2744 2837 
Q 2550 3084 2163 3084 
Q 1697 3084 1428 2787 
Q 1159 2491 1159 1978 
L 1159 0 
L 581 0 
L 581 3500 
L 1159 3500 
L 1159 2956 
Q 1366 3272 1645 3428 
Q 1925 3584 2291 3584 
Q 2894 3584 3203 3211 
Q 3513 2838 3513 2113 
z
" transform="scale(0.015625)"/>
      <path id="DejaVuSans-74" d="M 1172 4494 
L 1172 3500 
L 2356 3500 
L 2356 3053 
L 1172 3053 
L 1172 1153 
Q 1172 725 1289 603 
Q 1406 481 1766 481 
L 2356 481 
L 2356 0 
L 1766 0 
Q 1100 0 847 248 
Q 594 497 594 1153 
L 594 3053 
L 172 3053 
L 172 3500 
L 594 3500 
L 594 4494 
L 1172 4494 
z
" transform="scale(0.015625)"/>
      <path id="DejaVuSans-20" transform="scale(0.015625)"/>
      <path id="DejaVuSans-45" d="M 628 4666 
L 3578 4666 
L 3578 4134 
L 1259 4134 
L 1259 2753 
L 3481 2753 
L 3481 2222 
L 1259 2222 
L 1259 531 
L 3634 531 
L 3634 0 
L 628 0 
L 628 4666 
z
" transform="scale(0.015625)"/>
      <path id="DejaVuSans-78" d="M 3513 3500 
L 2247 1797 
L 3578 0 
L 2900 0 
L 1881 1375 
L 863 0 
L 184 0 
L 1544 1831 
L 300 3500 
L 978 3500 
L 1906 2253 
L 2834 3500 
L 3513 3500 
z
" transform="scale(0.015625)"/>
      <path id="DejaVuSans-72" d="M 2631 2963 
Q 2534 3019 2420 3045 
Q 2306 3072 2169 3072 
Q 1681 3072 1420 2755 
Q 1159 2438 1159 1844 
L 1159 0 
L 581 0 
L 581 3500 
L 1159 3500 
L 1159 2956 
Q 1341 3275 1631 3429 
Q 1922 3584 2338 3584 
Q 2397 3584 2469 3576 
Q 2541 3569 2628 3553 
L 2631 2963 
z
" transform="scale(0.015625)"/>
      <path id="DejaVuSans-61" d="M 2194 1759 
Q 1497 1759 1228 1600 
Q 959 1441 959 1056 
Q 959 750 1161 570 
Q 1363 391 1709 391 
Q 2188 391 2477 730 
Q 2766 1069 2766 1631 
L 2766 1759 
L 2194 1759 
z
M 3341 1997 
L 3341 0 
L 2766 0 
L 2766 531 
Q 2569 213 2275 61 
Q 1981 -91 1556 -91 
Q 1019 -91 701 211 
Q 384 513 384 1019 
Q 384 1609 779 1909 
Q 1175 2209 1959 2209 
L 2766 2209 
L 2766 2266 
Q 2766 2663 2505 2880 
Q 2244 3097 1772 3097 
Q 1472 3097 1187 3025 
Q 903 2953 641 2809 
L 641 3341 
Q 956 3463 1253 3523 
Q 1550 3584 1831 3584 
Q 2591 3584 2966 3190 
Q 3341 2797 3341 1997 
z
" transform="scale(0.015625)"/>
     </defs>
     <use xlink:href="#DejaVuSans-46"/>
     <use xlink:href="#DejaVuSans-75" x="52.019531"/>
     <use xlink:href="#DejaVuSans-65" x="115.398438"/>
     <use xlink:href="#DejaVuSans-6e" x="176.921875"/>
     <use xlink:href="#DejaVuSans-74" x="240.300781"/>
     <use xlink:href="#DejaVuSans-65" x="279.509766"/>
     <use xlink:href="#DejaVuSans-20" x="341.033203"/>
     <use xlink:href="#DejaVuSans-45" x="372.820312"/>
     <use xlink:href="#DejaVuSans-78" x="436.003906"/>
     <use xlink:href="#DejaVuSans-74" x="495.183594"/>
     <use xlink:href="#DejaVuSans-65" x="534.392578"/>
     <use xlink:href="#DejaVuSans-72" x="595.916016"/>
     <use xlink:href="#DejaVuSans-6e" x="635.279297"/>
     <use xlink:href="#DejaVuSans-61" x="698.658203"/>
    </g>
    <!-- GitHub REST API -->
    <g transform="translate(217.023438 65.454281) scale(0.1 -0.1)">
     <defs>
      <path id="DejaVuSans-47" d="M 3809 666 
L 3809 1919 
L 2778 1919 
L 2778 2438 
L 4434 2438 
L 4434 434 
Q 4069 175 3628 42 
Q 3188 -91 2688 -91 
Q 1594 -91 976 548 
Q 359 1188 359 2328 
Q 359 3472 976 4111 
Q 1594 4750 2688 4750 
Q 3144 4750 3555 4637 
Q 3966 4525 4313 4306 
L 4313 3634 
Q 3963 3931 3569 4081 
Q 3175 4231 2741 4231 
Q 1884 4231 1454 3753 
Q 1025 3275 1025 2328 
Q 1025 1384 1454 906 
Q 1884 428 2741 428 
Q 3075 428 3337 486 
Q 3600 544 3809 666 
z
" transform="scale(0.015625)"/>
      <path id="DejaVuSans-69" d="M 603 3500 
L 1178 3500 
L 1178 0 
L 603 0 
L 603 3500 
z
M 603 4863 
L 1178 4863 
L 1178 4134 
L 603 4134 
L 603 4863 
z
" transform="scale(0.015625)"/>
      <path id="DejaVuSans-48" d="M 628 4666 
L 1259 4666 
L 1259 2753 
L 3553 2753 
L 3553 4666 
L 4184 4666 
L 4184 0 
L 3553 0 
L 3553 2222 
L 1259 2222 
L 1259 0 
L 628 0 
L 628 4666 
z
" transform="scale(0.015625)"/>
      <path id="DejaVuSans-62" d="M 3116 1747 
Q 3116 2381 2855 2742 
Q 2594 3103 2138 3103 
Q 1681 3103 1420 2742 
Q 1159 2381 1159 1747 
Q 1159 1113 1420 752 
Q 1681 391 2138 391 
Q 2594 391 2855 752 
Q 3116 1113 3116 1747 
z
M 1159 2969 
Q 1341 3281 1617 3432 
Q 1894 3584 2278 3584 
Q 2916 3584 3314 3078 
Q 3713 2572 3713 1747 
Q 3713 922 3314 415 
Q 2916 -91 2278 -91 
Q 1894 -91 1617 61 
Q 1341 213 1159 525 
L 1159 0 
L 581 0 
L 581 4863 
L 1159 4863 
L 1159 2969 
z
" transform="scale(0.015625)"/>
      <path id="DejaVuSans-52" d="M 2841 2188 
Q 3044 2119 3236 1894 
Q 3428 1669 3622 1275 
L 4263 0 
L 3584 0 
L 2988 1197 
Q 2756 1666 2539 1819 
Q 2322 1972 1947 1972 
L 1259 1972 
L 1259 0 
L 628 0 
L 628 4666 
L 2053 4666 
Q 2853 4666 3247 4331 
Q 3641 3997 3641 3322 
Q 3641 2881 3436 2590 
Q 3231 2300 2841 2188 
z
M 1259 4147 
L 1259 2491 
L 2053 2491 
Q 2509 2491 2742 2702 
Q 2975 2913 2975 3322 
Q 2975 3731 2742 3939 
Q 2509 4147 2053 4147 
L 1259 4147 
z
" transform="scale(0.015625)"/>
      <path id="DejaVuSans-53" d="M 3425 4513 
L 3425 3897 
Q 3066 4069 2747 4153 
Q 2428 4238 2131 4238 
Q 1616 4238 1336 4038 
Q 1056 3838 1056 3469 
Q 1056 3159 1242 3001 
Q 1428 2844 1947 2747 
L 2328 2669 
Q 3034 2534 3370 2195 
Q 3706 1856 3706 1288 
Q 3706 609 3251 259 
Q 2797 -91 1919 -91 
Q 1588 -91 1214 -16 
Q 841 59 441 206 
L 441 856 
Q 825 641 1194 531 
Q 1563 422 1919 422 
Q 2459 422 2753 634 
Q 3047 847 3047 1241 
Q 3047 1584 2836 1778 
Q 2625 1972 2144 2069 
L 1759 2144 
Q 1053 2284 737 2584 
Q 422 2884 422 3419 
Q 422 4038 858 4394 
Q 1294 4750 2059 4750 
Q 2388 4750 2728 4690 
Q 3069 4631 3425 4513 
z
" transform="scale(0.015625)"/>
      <path id="DejaVuSans-54" d="M -19 4666 
L 3928 4666 
L 3928 4134 
L 2272 4134 
L 2272 0 
L 1638 0 
L 1638 4134 
L -19 4134 
L -19 4666 
z
" transform="scale(0.015625)"/>
      <path id="DejaVuSans-41" d="M 2188 4044 
L 1331 1722 
L 3047 1722 
L 2188 4044 
z
M 1831 4666 
L 2547 4666 
L 4325 0 
L 3669 0 
L 3244 1197 
L 1141 1197 
L 716 0 
L 50 0 
L 1831 4666 
z
" transform="scale(0.015625)"/>
      <path id="DejaVuSans-50" d="M 1259 4147 
L 1259 2394 
L 2053 2394 
Q 2494 2394 2734 2622 
Q 2975 2850 2975 3272 
Q 2975 3691 2734 3919 
Q 2494 4147 2053 4147 
L 1259 4147 
z
M 628 4666 
L 2053 4666 
Q 2838 4666 3239 4311 
Q 3641 3956 3641 3272 
Q 3641 2581 3239 2228 
Q 2838 1875 2053 1875 
L 1259 1875 
L 1259 0 
L 628 0 
L 628 4666 
z
" transform="scale(0.015625)"/>
      <path id="DejaVuSans-49" d="M 628 4666 
L 1259 4666 
L 1259 0 
L 628 0 
L 628 4666 
z
" transform="scale(0.015625)"/>
     </defs>
     <use xlink:href="#DejaVuSans-47"/>
     <use xlink:href="#DejaVuSans-69" x="77.490234"/>
     <use xlink:href="#DejaVuSans-74" x="105.273438"/>
     <use xlink:href="#DejaVuSans-48" x="144.482422"/>
     <use xlink:href="#DejaVuSans-75" x="219.677734"/>
     <use xlink:href="#DejaVuSans-62" x="283.056641"/>
     <use xlink:href="#DejaVuSans-20" x="346.533203"/>
     <use xlink:href="#DejaVuSans-52" x="378.320312"/>
     <use xlink:href="#DejaVuSans-45" x="447.802734"/>
     <use xlink:href="#DejaVuSans-53" x="510.986328"/>
     <use xlink:href="#DejaVuSans-54" x="574.462891"/>
     <use xlink:href="#DejaVuSans-20" x="635.546875"/>
     <use xlink:href="#DejaVuSans-41" x="667.333984"/>
     <use xlink:href="#DejaVuSans-50" x="735.742188"/>
     <use xlink:href="#DejaVuSans-49" x="796.044922"/>
    </g>
   </g>
   <g id="text_2">
    <!-- Orquestación -->
    <g transform="translate(224.98125 148.704469) scale(0.1 -0.1)">
     <defs>
      <path id="DejaVuSans-4f" d="M 2522 4238 
Q 1834 4238 1429 3725 
Q 1025 3213 1025 2328 
Q 1025 1447 1429 934 
Q 1834 422 2522 422 
Q 3209 422 3611 934 
Q 4013 1447 4013 2328 
Q 4013 3213 3611 3725 
Q 3209 4238 2522 4238 
z
M 2522 4750 
Q 3503 4750 4090 4092 
Q 4678 3434 4678 2328 
Q 4678 1225 4090 567 
Q 3503 -91 2522 -91 
Q 1538 -91 948 565 
Q 359 1222 359 2328 
Q 359 3434 948 4092 
Q 1538 4750 2522 4750 
z
" transform="scale(0.015625)"/>
      <path id="DejaVuSans-71" d="M 947 1747 
Q 947 1113 1208 752 
Q 1469 391 1925 391 
Q 2381 391 2643 752 
Q 2906 1113 2906 1747 
Q 2906 2381 2643 2742 
Q 2381 3103 1925 3103 
Q 1469 3103 1208 2742 
Q 947 2381 947 1747 
z
M 2906 525 
Q 2725 213 2448 61 
Q 2172 -91 1784 -91 
Q 1150 -91 751 415 
Q 353 922 353 1747 
Q 353 2572 751 3078 
Q 1150 3584 1784 3584 
Q 2172 3584 2448 3432 
Q 2725 3281 2906 2969 
L 2906 3500 
L 3481 3500 
L 3481 -1331 
L 2906 -1331 
L 2906 525 
z
" transform="scale(0.015625)"/>
      <path id="DejaVuSans-73" d="M 2834 3397 
L 2834 2853 
Q 2591 2978 2328 3040 
Q 2066 3103 1784 3103 
Q 1356 3103 1142 2972 
Q 928 2841 928 2578 
Q 928 2378 1081 2264 
Q 1234 2150 1697 2047 
L 1894 2003 
Q 2506 1872 2764 1633 
Q 3022 1394 3022 966 
Q 3022 478 2636 193 
Q 2250 -91 1575 -91 
Q 1294 -91 989 -36 
Q 684 19 347 128 
L 347 722 
Q 666 556 975 473 
Q 1284 391 1588 391 
Q 1994 391 2212 530 
Q 2431 669 2431 922 
Q 2431 1156 2273 1281 
Q 2116 1406 1581 1522 
L 1381 1569 
Q 847 1681 609 1914 
Q 372 2147 372 2553 
Q 372 3047 722 3315 
Q 1072 3584 1716 3584 
Q 2034 3584 2315 3537 
Q 2597 3491 2834 3397 
z
" transform="scale(0.015625)"/>
      <path id="DejaVuSans-63" d="M 3122 3366 
L 3122 2828 
Q 2878 2963 2633 3030 
Q 2388 3097 2138 3097 
Q 1578 3097 1268 2742 
Q 959 2388 959 1747 
Q 959 1106 1268 751 
Q 1578 397 2138 397 
Q 2388 397 2633 464 
Q 2878 531 3122 666 
L 3122 134 
Q 2881 22 2623 -34 
Q 2366 -91 2075 -91 
Q 1284 -91 818 406 
Q 353 903 353 1747 
Q 353 2603 823 3093 
Q 1294 3584 2113 3584 
Q 2378 3584 2631 3529 
Q 2884 3475 3122 3366 
z
" transform="scale(0.015625)"/>
      <path id="DejaVuSans-f3" d="M 1959 3097 
Q 1497 3097 1228 2736 
Q 959 2375 959 1747 
Q 959 1119 1226 758 
Q 1494 397 1959 397 
Q 2419 397 2687 759 
Q 2956 1122 2956 1747 
Q 2956 2369 2687 2733 
Q 2419 3097 1959 3097 
z
M 1959 3584 
Q 2709 3584 3137 3096 
Q 3566 2609 3566 1747 
Q 3566 888 3137 398 
Q 2709 -91 1959 -91 
Q 1206 -91 779 398 
Q 353 888 353 1747 
Q 353 2609 779 3096 
Q 1206 3584 1959 3584 
z
M 2394 5119 
L 3016 5119 
L 1998 3944 
L 1519 3944 
L 2394 5119 
z
" transform="scale(0.015625)"/>
     </defs>
     <use xlink:href="#DejaVuSans-4f"/>
     <use xlink:href="#DejaVuSans-72" x="78.710938"/>
     <use xlink:href="#DejaVuSans-71" x="118.074219"/>
     <use xlink:href="#DejaVuSans-75" x="181.550781"/>
     <use xlink:href="#DejaVuSans-65" x="244.929688"/>
     <use xlink:href="#DejaVuSans-73" x="306.453125"/>
     <use xlink:href="#DejaVuSans-74" x="358.552734"/>
     <use xlink:href="#DejaVuSans-61" x="397.761719"/>
     <use xlink:href="#DejaVuSans-63" x="459.041016"/>
     <use xlink:href="#DejaVuSans-69" x="514.021484"/>
     <use xlink:href="#DejaVuSans-f3" x="541.804688"/>
     <use xlink:href="#DejaVuSans-6e" x="602.986328"/>
    </g>
    <!-- Apache Airflow (Scheduler + DAGs) -->
    <g transform="translate(169.429688 159.902281) scale(0.1 -0.1)">
     <defs>
      <path id="DejaVuSans-70" d="M 1159 525 
L 1159 -1331 
L 581 -1331 
L 581 3500 
L 1159 3500 
L 1159 2969 
Q 1341 3281 1617 3432 
Q 1894 3584 2278 3584 
Q 2916 3584 3314 3078 
Q 3713 2572 3713 1747 
Q 3713 922 3314 415 
Q 2916 -91 2278 -91 
Q 1894 -91 1617 61 
Q 1341 213 1159 525 
z
M 3116 1747 
Q 3116 2381 2855 2742 
Q 2594 3103 2138 3103 
Q 1681 3103 1420 2742 
Q 1159 2381 1159 1747 
Q 1159 1113 1420 752 
Q 1681 391 2138 391 
Q 2594 391 2855 752 
Q 3116 1113 3116 1747 
z
" transform="scale(0.015625)"/>
      <path id="DejaVuSans-68" d="M 3513 2113 
L 3513 0 
L 2938 0 
L 2938 2094 
Q 2938 2591 2744 2837 
Q 2550 3084 2163 3084 
Q 1697 3084 1428 2787 
Q 1159 2491 1159 1978 
L 1159 0 
L 581 0 
L 581 4863 
L 1159 4863 
L 1159 2956 
Q 1366 3272 1645 3428 
Q 1925 3584 2291 3584 
Q 2894 3584 3203 3211 
Q 3513 2838 3513 2113 
z
" transform="scale(0.015625)"/>
      <path id="DejaVuSans-66" d="M 2375 4863 
L 2375 4384 
L 1825 4384 
Q 1516 4384 1395 4259 
Q 1275 4134 1275 3809 
L 1275 3500 
L 2222 3500 
L 2222 3053 
L 1275 3053 
L 1275 0 
L 697 0 
L 697 3053 
L 147 3053 
L 147 3500 
L 697 3500 
L 697 3744 
Q 697 4328 969 4595 
Q 1241 4863 1831 4863 
L 2375 4863 
z
" transform="scale(0.015625)"/>
      <path id="DejaVuSans-6c" d="M 603 4863 
L 1178 4863 
L 1178 0 
L 603 0 
L 603 4863 
z
" transform="scale(0.015625)"/>
      <path id="DejaVuSans-6f" d="M 1959 3097 
Q 1497 3097 1228 2736 
Q 959 2375 959 1747 
Q 959 1119 1226 758 
Q 1494 397 1959 397 
Q 2419 397 2687 759 
Q 2956 1122 2956 1747 
Q 2956 2369 2687 2733 
Q 2419 3097 1959 3097 
z
M 1959 3584 
Q 2709 3584 3137 3096 
Q 3566 2609 3566 1747 
Q 3566 888 3137 398 
Q 2709 -91 1959 -91 
Q 1206 -91 779 398 
Q 353 888 353 1747 
Q 353 2609 779 3096 
Q 1206 3584 1959 3584 
z
" transform="scale(0.015625)"/>
      <path id="DejaVuSans-77" d="M 269 3500 
L 844 3500 
L 1563 769 
L 2278 3500 
L 2956 3500 
L 3675 769 
L 4391 3500 
L 4966 3500 
L 4050 0 
L 3372 0 
L 2619 2869 
L 1863 0 
L 1184 0 
L 269 3500 
z
" transform="scale(0.015625)"/>
      <path id="DejaVuSans-28" d="M 1984 4856 
Q 1566 4138 1362 3434 
Q 1159 2731 1159 2009 
Q 1159 1288 1364 580 
Q 1569 -128 1984 -844 
L 1484 -844 
Q 1016 -109 783 600 
Q 550 1309 550 2009 
Q 550 2706 781 3412 
Q 1013 4119 1484 4856 
L 1984 4856 
z
" transform="scale(0.015625)"/>
      <path id="DejaVuSans-64" d="M 2906 2969 
L 2906 4863 
L 3481 4863 
L 3481 0 
L 2906 0 
L 2906 525 
Q 2725 213 2448 61 
Q 2172 -91 1784 -91 
Q 1150 -91 751 415 
Q 353 922 353 1747 
Q 353 2572 751 3078 
Q 1150 3584 1784 3584 
Q 2172 3584 2448 3432 
Q 2725 3281 2906 2969 
z
M 947 1747 
Q 947 1113 1208 752 
Q 1469 391 1925 391 
Q 2381 391 2643 752 
Q 2906 1113 2906 1747 
Q 2906 2381 2643 2742 
Q 2381 3103 1925 3103 
Q 1469 3103 1208 2742 
Q 947 2381 947 1747 
z
" transform="scale(0.015625)"/>
      <path id="DejaVuSans-2b" d="M 2944 4013 
L 2944 2272 
L 4684 2272 
L 4684 1741 
L 2944 1741 
L 2944 0 
L 2419 0 
L 2419 1741 
L 678 1741 
L 678 2272 
L 2419 2272 
L 2419 4013 
L 2944 4013 
z
" transform="scale(0.015625)"/>
      <path id="DejaVuSans-44" d="M 1259 4147 
L 1259 519 
L 2022 519 
Q 2988 519 3436 956 
Q 3884 1394 3884 2338 
Q 3884 3275 3436 3711 
Q 2988 4147 2022 4147 
L 1259 4147 
z
M 628 4666 
L 1925 4666 
Q 3281 4666 3915 4102 
Q 4550 3538 4550 2338 
Q 4550 1131 3912 565 
Q 3275 0 1925 0 
L 628 0 
L 628 4666 
z
" transform="scale(0.015625)"/>
      <path id="DejaVuSans-29" d="M 513 4856 
L 1013 4856 
Q 1481 4119 1714 3412 
Q 1947 2706 1947 2009 
Q 1947 1309 1714 600 
Q 1481 -109 1013 -844 
L 513 -844 
Q 928 -128 1133 580 
Q 1338 1288 1338 2009 
Q 1338 2731 1133 3434 
Q 928 4138 513 4856 
z
" transform="scale(0.015625)"/>
     </defs>
     <use xlink:href="#DejaVuSans-41"/>
     <use xlink:href="#DejaVuSans-70" x="68.408203"/>
     <use xlink:href="#DejaVuSans-61" x="131.884766"/>
     <use xlink:href="#DejaVuSans-63" x="193.164062"/>
     <use xlink:href="#DejaVuSans-68" x="248.144531"/>
     <use xlink:href="#DejaVuSans-65" x="311.523438"/>
     <use xlink:href="#DejaVuSans-20" x="373.046875"/>
     <use xlink:href="#DejaVuSans-41" x="404.833984"/>
     <use xlink:href="#DejaVuSans-69" x="473.242188"/>
     <use xlink:href="#DejaVuSans-72" x="501.025391"/>
     <use xlink:href="#DejaVuSans-66" x="542.138672"/>
     <use xlink:href="#DejaVuSans-6c" x="577.34375"/>
     <use xlink:href="#DejaVuSans-6f" x="605.126953"/>
     <use xlink:href="#DejaVuSans-77" x="666.308594"/>
     <use xlink:href="#DejaVuSans-20" x="748.095703"/>
     <use xlink:href="#DejaVuSans-28" x="779.882812"/>
     <use xlink:href="#DejaVuSans-53" x="818.896484"/>
     <use xlink:href="#DejaVuSans-63" x="882.373047"/>
     <use xlink:href="#DejaVuSans-68" x="937.353516"/>
     <use xlink:href="#DejaVuSans-65" x="1000.732422"/>
     <use xlink:href="#DejaVuSans-64" x="1062.255859"/>
     <use xlink:href="#DejaVuSans-75" x="1125.732422"/>
     <use xlink:href="#DejaVuSans-6c" x="1189.111328"/>
     <use xlink:href="#DejaVuSans-65" x="1216.894531"/>
     <use xlink:href="#DejaVuSans-72" x="1278.417969"/>
     <use xlink:href="#DejaVuSans-20" x="1319.53125"/>
     <use xlink:href="#DejaVuSans-2b" x="1351.318359"/>
     <use xlink:href="#DejaVuSans-20" x="1435.107422"/>
     <use xlink:href="#DejaVuSans-44" x="1466.894531"/>
     <use xlink:href="#DejaVuSans-41" x="1542.146484"/>
     <use xlink:href="#DejaVuSans-47" x="1608.804688"/>
     <use xlink:href="#DejaVuSans-73" x="1686.294922"/>
     <use xlink:href="#DejaVuSans-29" x="1738.394531"/>
    </g>
   </g>
   <g id="text_3">
    <!-- Capa RAW -->
    <g transform="translate(232.553906 237.0145) scale(0.1 -0.1)">
     <defs>
      <path id="DejaVuSans-43" d="M 4122 4306 
L 4122 3641 
Q 3803 3938 3442 4084 
Q 3081 4231 2675 4231 
Q 1875 4231 1450 3742 
Q 1025 3253 1025 2328 
Q 1025 1406 1450 917 
Q 1875 428 2675 428 
Q 3081 428 3442 575 
Q 3803 722 4122 1019 
L 4122 359 
Q 3791 134 3420 21 
Q 3050 -91 2638 -91 
Q 1578 -91 968 557 
Q 359 1206 359 2328 
Q 359 3453 968 4101 
Q 1578 4750 2638 4750 
Q 3056 4750 3426 4639 
Q 3797 4528 4122 4306 
z
" transform="scale(0.015625)"/>
      <path id="DejaVuSans-57" d="M 213 4666 
L 850 4666 
L 1831 722 
L 2809 4666 
L 3519 4666 
L 4500 722 
L 5478 4666 
L 6119 4666 
L 4947 0 
L 4153 0 
L 3169 4050 
L 2175 0 
L 1381 0 
L 213 4666 
z
" transform="scale(0.015625)"/>
     </defs>
     <use xlink:href="#DejaVuSans-43"/>
     <use xlink:href="#DejaVuSans-61" x="69.824219"/>
     <use xlink:href="#DejaVuSans-70" x="131.103516"/>
     <use xlink:href="#DejaVuSans-61" x="194.580078"/>
     <use xlink:href="#DejaVuSans-20" x="255.859375"/>
     <use xlink:href="#DejaVuSans-52" x="287.646484"/>
     <use xlink:href="#DejaVuSans-41" x="353.128906"/>
     <use xlink:href="#DejaVuSans-57" x="416.037109"/>
    </g>
    <!-- Almacenamiento JSON (Inmutable) -->
    <g transform="translate(171.221094 248.212312) scale(0.1 -0.1)">
     <defs>
      <path id="DejaVuSans-6d" d="M 3328 2828 
Q 3544 3216 3844 3400 
Q 4144 3584 4550 3584 
Q 5097 3584 5394 3201 
Q 5691 2819 5691 2113 
L 5691 0 
L 5113 0 
L 5113 2094 
Q 5113 2597 4934 2840 
Q 4756 3084 4391 3084 
Q 3944 3084 3684 2787 
Q 3425 2491 3425 1978 
L 3425 0 
L 2847 0 
L 2847 2094 
Q 2847 2600 2669 2842 
Q 2491 3084 2119 3084 
Q 1678 3084 1418 2786 
Q 1159 2488 1159 1978 
L 1159 0 
L 581 0 
L 581 3500 
L 1159 3500 
L 1159 2956 
Q 1356 3278 1631 3431 
Q 1906 3584 2284 3584 
Q 2666 3584 2933 3390 
Q 3200 3197 3328 2828 
z
" transform="scale(0.015625)"/>
      <path id="DejaVuSans-4a" d="M 628 4666 
L 1259 4666 
L 1259 325 
Q 1259 -519 939 -900 
Q 619 -1281 -91 -1281 
L -331 -1281 
L -331 -750 
L -134 -750 
Q 284 -750 456 -515 
Q 628 -281 628 325 
L 628 4666 
z
" transform="scale(0.015625)"/>
      <path id="DejaVuSans-4e" d="M 628 4666 
L 1478 4666 
L 3547 763 
L 3547 4666 
L 4159 4666 
L 4159 0 
L 3309 0 
L 1241 3903 
L 1241 0 
L 628 0 
L 628 4666 
z
" transform="scale(0.015625)"/>
     </defs>
     <use xlink:href="#DejaVuSans-41"/>
     <use xlink:href="#DejaVuSans-6c" x="68.408203"/>
     <use xlink:href="#DejaVuSans-6d" x="96.191406"/>
     <use xlink:href="#DejaVuSans-61" x="193.603516"/>
     <use xlink:href="#DejaVuSans-63" x="254.882812"/>
     <use xlink:href="#DejaVuSans-65" x="309.863281"/>
     <use xlink:href="#DejaVuSans-6e" x="371.386719"/>
     <use xlink:href="#DejaVuSans-61" x="434.765625"/>
     <use xlink:href="#DejaVuSans-6d" x="496.044922"/>
     <use xlink:href="#DejaVuSans-69" x="593.457031"/>
     <use xlink:href="#DejaVuSans-65" x="621.240234"/>
     <use xlink:href="#DejaVuSans-6e" x="682.763672"/>
     <use xlink:href="#DejaVuSans-74" x="746.142578"/>
     <use xlink:href="#DejaVuSans-6f" x="785.351562"/>
     <use xlink:href="#DejaVuSans-20" x="846.533203"/>
     <use xlink:href="#DejaVuSans-4a" x="878.320312"/>
     <use xlink:href="#DejaVuSans-53" x="907.8125"/>
     <use xlink:href="#DejaVuSans-4f" x="971.289062"/>
     <use xlink:href="#DejaVuSans-4e" x="1050"/>
     <use xlink:href="#DejaVuSans-20" x="1124.804688"/>
     <use xlink:href="#DejaVuSans-28" x="1156.591797"/>
     <use xlink:href="#DejaVuSans-49" x="1195.605469"/>
     <use xlink:href="#DejaVuSans-6e" x="1225.097656"/>
     <use xlink:href="#DejaVuSans-6d" x="1288.476562"/>
     <use xlink:href="#DejaVuSans-75" x="1385.888672"/>
     <use xlink:href="#DejaVuSans-74" x="1449.267578"/>
     <use xlink:href="#DejaVuSans-61" x="1488.476562"/>
     <use xlink:href="#DejaVuSans-62" x="1549.755859"/>
     <use xlink:href="#DejaVuSans-6c" x="1613.232422"/>
     <use xlink:href="#DejaVuSans-65" x="1641.015625"/>
     <use xlink:href="#DejaVuSans-29" x="1702.539062"/>
    </g>
    <!-- raw.github_repos / raw.github_commits -->
    <g transform="translate(160.323438 259.410125) scale(0.1 -0.1)">
     <defs>
      <path id="DejaVuSans-2e" d="M 684 794 
L 1344 794 
L 1344 0 
L 684 0 
L 684 794 
z
" transform="scale(0.015625)"/>
      <path id="DejaVuSans-67" d="M 2906 1791 
Q 2906 2416 2648 2759 
Q 2391 3103 1925 3103 
Q 1463 3103 1205 2759 
Q 947 2416 947 1791 
Q 947 1169 1205 825 
Q 1463 481 1925 481 
Q 2391 481 2648 825 
Q 2906 1169 2906 1791 
z
M 3481 434 
Q 3481 -459 3084 -895 
Q 2688 -1331 1869 -1331 
Q 1566 -1331 1297 -1286 
Q 1028 -1241 775 -1147 
L 775 -588 
Q 1028 -725 1275 -790 
Q 1522 -856 1778 -856 
Q 2344 -856 2625 -561 
Q 2906 -266 2906 331 
L 2906 616 
Q 2728 306 2450 153 
Q 2172 0 1784 0 
Q 1141 0 747 490 
Q 353 981 353 1791 
Q 353 2603 747 3093 
Q 1141 3584 1784 3584 
Q 2172 3584 2450 3431 
Q 2728 3278 2906 2969 
L 2906 3500 
L 3481 3500 
L 3481 434 
z
" transform="scale(0.015625)"/>
      <path id="DejaVuSans-5f" d="M 3263 -1063 
L 3263 -1509 
L -63 -1509 
L -63 -1063 
L 3263 -1063 
z
" transform="scale(0.015625)"/>
      <path id="DejaVuSans-2f" d="M 1625 4666 
L 2156 4666 
L 531 -594 
L 0 -594 
L 1625 4666 
z
" transform="scale(0.015625)"/>
     </defs>
     <use xlink:href="#DejaVuSans-72"/>
     <use xlink:href="#DejaVuSans-61" x="41.113281"/>
     <use xlink:href="#DejaVuSans-77" x="102.392578"/>
     <use xlink:href="#DejaVuSans-2e" x="175.054688"/>
     <use xlink:href="#DejaVuSans-67" x="206.841797"/>
     <use xlink:href="#DejaVuSans-69" x="270.318359"/>
     <use xlink:href="#DejaVuSans-74" x="298.101562"/>
     <use xlink:href="#DejaVuSans-68" x="337.310547"/>
     <use xlink:href="#DejaVuSans-75" x="400.689453"/>
     <use xlink:href="#DejaVuSans-62" x="464.068359"/>
     <use xlink:href="#DejaVuSans-5f" x="527.544922"/>
     <use xlink:href="#DejaVuSans-72" x="577.544922"/>
     <use xlink:href="#DejaVuSans-65" x="616.408203"/>
     <use xlink:href="#DejaVuSans-70" x="677.931641"/>
     <use xlink:href="#DejaVuSans-6f" x="741.408203"/>
     <use xlink:href="#DejaVuSans-73" x="802.589844"/>
     <use xlink:href="#DejaVuSans-20" x="854.689453"/>
     <use xlink:href="#DejaVuSans-2f" x="886.476562"/>
     <use xlink:href="#DejaVuSans-20" x="920.167969"/>
     <use xlink:href="#DejaVuSans-72" x="951.955078"/>
     <use xlink:href="#DejaVuSans-61" x="993.068359"/>
     <use xlink:href="#DejaVuSans-77" x="1054.347656"/>
     <use xlink:href="#DejaVuSans-2e" x="1127.009766"/>
     <use xlink:href="#DejaVuSans-67" x="1158.796875"/>
     <use xlink:href="#DejaVuSans-69" x="1222.273438"/>
     <use xlink:href="#DejaVuSans-74" x="1250.056641"/>
     <use xlink:href="#DejaVuSans-68" x="1289.265625"/>
     <use xlink:href="#DejaVuSans-75" x="1352.644531"/>
     <use xlink:href="#DejaVuSans-62" x="1416.023438"/>
     <use xlink:href="#DejaVuSans-5f" x="1479.5"/>
     <use xlink:href="#DejaVuSans-63" x="1529.5"/>
     <use xlink:href="#DejaVuSans-6f" x="1584.480469"/>
     <use xlink:href="#DejaVuSans-6d" x="1645.662109"/>
     <use xlink:href="#DejaVuSans-6d" x="1743.074219"/>
     <use xlink:href="#DejaVuSans-69" x="1840.486328"/>
     <use xlink:href="#DejaVuSans-74" x="1868.269531"/>
     <use xlink:href="#DejaVuSans-73" x="1907.478516"/>
    </g>
   </g>
   <g id="text_4">
    <!-- Capa STAGING -->
    <g transform="translate(221.779688 331.161562) scale(0.1 -0.1)">
     <use xlink:href="#DejaVuSans-43"/>
     <use xlink:href="#DejaVuSans-61" x="69.824219"/>
     <use xlink:href="#DejaVuSans-70" x="131.103516"/>
     <use xlink:href="#DejaVuSans-61" x="194.580078"/>
     <use xlink:href="#DejaVuSans-20" x="255.859375"/>
     <use xlink:href="#DejaVuSans-53" x="287.646484"/>
     <use xlink:href="#DejaVuSans-54" x="351.123047"/>
     <use xlink:href="#DejaVuSans-41" x="404.457031"/>
     <use xlink:href="#DejaVuSans-47" x="471.115234"/>
     <use xlink:href="#DejaVuSans-49" x="548.605469"/>
     <use xlink:href="#DejaVuSans-4e" x="578.097656"/>
     <use xlink:href="#DejaVuSans-47" x="652.902344"/>
    </g>
    <!-- Normalización + Deduplicación -->
    <g transform="translate(179.995313 342.839375) scale(0.1 -0.1)">
     <defs>
      <path id="DejaVuSans-7a" d="M 353 3500 
L 3084 3500 
L 3084 2975 
L 922 459 
L 3084 459 
L 3084 0 
L 275 0 
L 275 525 
L 2438 3041 
L 353 3041 
L 353 3500 
z
" transform="scale(0.015625)"/>
     </defs>
     <use xlink:href="#DejaVuSans-4e"/>
     <use xlink:href="#DejaVuSans-6f" x="74.804688"/>
     <use xlink:href="#DejaVuSans-72" x="135.986328"/>
     <use xlink:href="#DejaVuSans-6d" x="175.349609"/>
     <use xlink:href="#DejaVuSans-61" x="272.761719"/>
     <use xlink:href="#DejaVuSans-6c" x="334.041016"/>
     <use xlink:href="#DejaVuSans-69" x="361.824219"/>
     <use xlink:href="#DejaVuSans-7a" x="389.607422"/>
     <use xlink:href="#DejaVuSans-61" x="442.097656"/>
     <use xlink:href="#DejaVuSans-63" x="503.376953"/>
     <use xlink:href="#DejaVuSans-69" x="558.357422"/>
     <use xlink:href="#DejaVuSans-f3" x="586.140625"/>
     <use xlink:href="#DejaVuSans-6e" x="647.322266"/>
     <use xlink:href="#DejaVuSans-20" x="710.701172"/>
     <use xlink:href="#DejaVuSans-2b" x="742.488281"/>
     <use xlink:href="#DejaVuSans-20" x="826.277344"/>
     <use xlink:href="#DejaVuSans-44" x="858.064453"/>
     <use xlink:href="#DejaVuSans-65" x="935.066406"/>
     <use xlink:href="#DejaVuSans-64" x="996.589844"/>
     <use xlink:href="#DejaVuSans-75" x="1060.066406"/>
     <use xlink:href="#DejaVuSans-70" x="1123.445312"/>
     <use xlink:href="#DejaVuSans-6c" x="1186.921875"/>
     <use xlink:href="#DejaVuSans-69" x="1214.705078"/>
     <use xlink:href="#DejaVuSans-63" x="1242.488281"/>
     <use xlink:href="#DejaVuSans-61" x="1297.46875"/>
     <use xlink:href="#DejaVuSans-63" x="1358.748047"/>
     <use xlink:href="#DejaVuSans-69" x="1413.728516"/>
     <use xlink:href="#DejaVuSans-f3" x="1441.511719"/>
     <use xlink:href="#DejaVuSans-6e" x="1502.693359"/>
    </g>
    <!-- stg.repos / stg.commits -->
    <g transform="translate(199.420313 354.037187) scale(0.1 -0.1)">
     <use xlink:href="#DejaVuSans-73"/>
     <use xlink:href="#DejaVuSans-74" x="52.099609"/>
     <use xlink:href="#DejaVuSans-67" x="91.308594"/>
     <use xlink:href="#DejaVuSans-2e" x="154.785156"/>
     <use xlink:href="#DejaVuSans-72" x="186.572266"/>
     <use xlink:href="#DejaVuSans-65" x="225.435547"/>
     <use xlink:href="#DejaVuSans-70" x="286.958984"/>
     <use xlink:href="#DejaVuSans-6f" x="350.435547"/>
     <use xlink:href="#DejaVuSans-73" x="411.617188"/>
     <use xlink:href="#DejaVuSans-20" x="463.716797"/>
     <use xlink:href="#DejaVuSans-2f" x="495.503906"/>
     <use xlink:href="#DejaVuSans-20" x="529.195312"/>
     <use xlink:href="#DejaVuSans-73" x="560.982422"/>
     <use xlink:href="#DejaVuSans-74" x="613.082031"/>
     <use xlink:href="#DejaVuSans-67" x="652.291016"/>
     <use xlink:href="#DejaVuSans-2e" x="715.767578"/>
     <use xlink:href="#DejaVuSans-63" x="747.554688"/>
     <use xlink:href="#DejaVuSans-6f" x="802.535156"/>
     <use xlink:href="#DejaVuSans-6d" x="863.716797"/>
     <use xlink:href="#DejaVuSans-6d" x="961.128906"/>
     <use xlink:href="#DejaVuSans-69" x="1058.541016"/>
     <use xlink:href="#DejaVuSans-74" x="1086.324219"/>
     <use xlink:href="#DejaVuSans-73" x="1125.533203"/>
    </g>
   </g>
   <g id="text_5">
    <!-- Data Warehouse -->
    <g transform="translate(216.985938 414.173625) scale(0.1 -0.1)">
     <use xlink:href="#DejaVuSans-44"/>
     <use xlink:href="#DejaVuSans-61" x="77.001953"/>
     <use xlink:href="#DejaVuSans-74" x="138.28125"/>
     <use xlink:href="#DejaVuSans-61" x="177.490234"/>
     <use xlink:href="#DejaVuSans-20" x="238.769531"/>
     <use xlink:href="#DejaVuSans-57" x="270.556641"/>
     <use xlink:href="#DejaVuSans-61" x="363.058594"/>
     <use xlink:href="#DejaVuSans-72" x="424.337891"/>
     <use xlink:href="#DejaVuSans-65" x="463.201172"/>
     <use xlink:href="#DejaVuSans-68" x="524.724609"/>
     <use xlink:href="#DejaVuSans-6f" x="588.103516"/>
     <use xlink:href="#DejaVuSans-75" x="649.285156"/>
     <use xlink:href="#DejaVuSans-73" x="712.664062"/>
     <use xlink:href="#DejaVuSans-65" x="764.763672"/>
    </g>
    <!-- Modelo Dimensional -->
    <g transform="translate(207.608594 425.371437) scale(0.1 -0.1)">
     <defs>
      <path id="DejaVuSans-4d" d="M 628 4666 
L 1569 4666 
L 2759 1491 
L 3956 4666 
L 4897 4666 
L 4897 0 
L 4281 0 
L 4281 4097 
L 3078 897 
L 2444 897 
L 1241 4097 
L 1241 0 
L 628 0 
L 628 4666 
z
" transform="scale(0.015625)"/>
     </defs>
     <use xlink:href="#DejaVuSans-4d"/>
     <use xlink:href="#DejaVuSans-6f" x="86.279297"/>
     <use xlink:href="#DejaVuSans-64" x="147.460938"/>
     <use xlink:href="#DejaVuSans-65" x="210.9375"/>
     <use xlink:href="#DejaVuSans-6c" x="272.460938"/>
     <use xlink:href="#DejaVuSans-6f" x="300.244141"/>
     <use xlink:href="#DejaVuSans-20" x="361.425781"/>
     <use xlink:href="#DejaVuSans-44" x="393.212891"/>
     <use xlink:href="#DejaVuSans-69" x="470.214844"/>
     <use xlink:href="#DejaVuSans-6d" x="497.998047"/>
     <use xlink:href="#DejaVuSans-65" x="595.410156"/>
     <use xlink:href="#DejaVuSans-6e" x="656.933594"/>
     <use xlink:href="#DejaVuSans-73" x="720.3125"/>
     <use xlink:href="#DejaVuSans-69" x="772.412109"/>
     <use xlink:href="#DejaVuSans-6f" x="800.195312"/>
     <use xlink:href="#DejaVuSans-6e" x="861.376953"/>
     <use xlink:href="#DejaVuSans-61" x="924.755859"/>
     <use xlink:href="#DejaVuSans-6c" x="986.035156"/>
    </g>
    <!--  -->
    <g transform="translate(258.3 436.56925) scale(0.1 -0.1)"/>
    <!-- dw.dim_repository -->
    <g transform="translate(212.689063 447.767062) scale(0.1 -0.1)">
     <defs>
      <path id="DejaVuSans-79" d="M 2059 -325 
Q 1816 -950 1584 -1140 
Q 1353 -1331 966 -1331 
L 506 -1331 
L 506 -850 
L 844 -850 
Q 1081 -850 1212 -737 
Q 1344 -625 1503 -206 
L 1606 56 
L 191 3500 
L 800 3500 
L 1894 763 
L 2988 3500 
L 3597 3500 
L 2059 -325 
z
" transform="scale(0.015625)"/>
     </defs>
     <use xlink:href="#DejaVuSans-64"/>
     <use xlink:href="#DejaVuSans-77" x="63.476562"/>
     <use xlink:href="#DejaVuSans-2e" x="136.138672"/>
     <use xlink:href="#DejaVuSans-64" x="167.925781"/>
     <use xlink:href="#DejaVuSans-69" x="231.402344"/>
     <use xlink:href="#DejaVuSans-6d" x="259.185547"/>
     <use xlink:href="#DejaVuSans-5f" x="356.597656"/>
     <use xlink:href="#DejaVuSans-72" x="406.597656"/>
     <use xlink:href="#DejaVuSans-65" x="445.460938"/>
     <use xlink:href="#DejaVuSans-70" x="506.984375"/>
     <use xlink:href="#DejaVuSans-6f" x="570.460938"/>
     <use xlink:href="#DejaVuSans-73" x="631.642578"/>
     <use xlink:href="#DejaVuSans-69" x="683.742188"/>
     <use xlink:href="#DejaVuSans-74" x="711.525391"/>
     <use xlink:href="#DejaVuSans-6f" x="750.734375"/>
     <use xlink:href="#DejaVuSans-72" x="811.916016"/>
     <use xlink:href="#DejaVuSans-79" x="853.029297"/>
    </g>
    <!-- dw.fact_commits -->
    <g transform="translate(216.367188 459.243) scale(0.1 -0.1)">
     <use xlink:href="#DejaVuSans-64"/>
     <use xlink:href="#DejaVuSans-77" x="63.476562"/>
     <use xlink:href="#DejaVuSans-2e" x="136.138672"/>
     <use xlink:href="#DejaVuSans-66" x="167.925781"/>
     <use xlink:href="#DejaVuSans-61" x="203.130859"/>
     <use xlink:href="#DejaVuSans-63" x="264.410156"/>
     <use xlink:href="#DejaVuSans-74" x="319.390625"/>
     <use xlink:href="#DejaVuSans-5f" x="358.599609"/>
     <use xlink:href="#DejaVuSans-63" x="408.599609"/>
     <use xlink:href="#DejaVuSans-6f" x="463.580078"/>
     <use xlink:href="#DejaVuSans-6d" x="524.761719"/>
     <use xlink:href="#DejaVuSans-6d" x="622.173828"/>
     <use xlink:href="#DejaVuSans-69" x="719.585938"/>
     <use xlink:href="#DejaVuSans-74" x="747.369141"/>
     <use xlink:href="#DejaVuSans-73" x="786.578125"/>
    </g>
   </g>
   <g id="text_6">
    <!-- Gobernanza y Confiabilidad -->
    <g transform="translate(189.233594 525.496469) scale(0.1 -0.1)">
     <use xlink:href="#DejaVuSans-47"/>
     <use xlink:href="#DejaVuSans-6f" x="77.490234"/>
     <use xlink:href="#DejaVuSans-62" x="138.671875"/>
     <use xlink:href="#DejaVuSans-65" x="202.148438"/>
     <use xlink:href="#DejaVuSans-72" x="263.671875"/>
     <use xlink:href="#DejaVuSans-6e" x="303.035156"/>
     <use xlink:href="#DejaVuSans-61" x="366.414062"/>
     <use xlink:href="#DejaVuSans-6e" x="427.693359"/>
     <use xlink:href="#DejaVuSans-7a" x="491.072266"/>
     <use xlink:href="#DejaVuSans-61" x="543.5625"/>
     <use xlink:href="#DejaVuSans-20" x="604.841797"/>
     <use xlink:href="#DejaVuSans-79" x="636.628906"/>
     <use xlink:href="#DejaVuSans-20" x="695.808594"/>
     <use xlink:href="#DejaVuSans-43" x="727.595703"/>
     <use xlink:href="#DejaVuSans-6f" x="797.419922"/>
     <use xlink:href="#DejaVuSans-6e" x="858.601562"/>
     <use xlink:href="#DejaVuSans-66" x="921.980469"/>
     <use xlink:href="#DejaVuSans-69" x="957.185547"/>
     <use xlink:href="#DejaVuSans-61" x="984.96875"/>
     <use xlink:href="#DejaVuSans-62" x="1046.248047"/>
     <use xlink:href="#DejaVuSans-69" x="1109.724609"/>
     <use xlink:href="#DejaVuSans-6c" x="1137.507812"/>
     <use xlink:href="#DejaVuSans-69" x="1165.291016"/>
     <use xlink:href="#DejaVuSans-64" x="1193.074219"/>
     <use xlink:href="#DejaVuSans-61" x="1256.550781"/>
     <use xlink:href="#DejaVuSans-64" x="1317.830078"/>
    </g>
    <!-- Watermark Control + Data Quality + Run Audit -->
    <g transform="translate(140.642969 536.694281) scale(0.1 -0.1)">
     <defs>
      <path id="DejaVuSans-6b" d="M 581 4863 
L 1159 4863 
L 1159 1991 
L 2875 3500 
L 3609 3500 
L 1753 1863 
L 3688 0 
L 2938 0 
L 1159 1709 
L 1159 0 
L 581 0 
L 581 4863 
z
" transform="scale(0.015625)"/>
      <path id="DejaVuSans-51" d="M 2522 4238 
Q 1834 4238 1429 3725 
Q 1025 3213 1025 2328 
Q 1025 1447 1429 934 
Q 1834 422 2522 422 
Q 3209 422 3611 934 
Q 4013 1447 4013 2328 
Q 4013 3213 3611 3725 
Q 3209 4238 2522 4238 
z
M 3406 84 
L 4238 -825 
L 3475 -825 
L 2784 -78 
Q 2681 -84 2626 -87 
Q 2572 -91 2522 -91 
Q 1538 -91 948 567 
Q 359 1225 359 2328 
Q 359 3434 948 4092 
Q 1538 4750 2522 4750 
Q 3503 4750 4090 4092 
Q 4678 3434 4678 2328 
Q 4678 1516 4351 937 
Q 4025 359 3406 84 
z
" transform="scale(0.015625)"/>
     </defs>
     <use xlink:href="#DejaVuSans-57"/>
     <use xlink:href="#DejaVuSans-61" x="92.501953"/>
     <use xlink:href="#DejaVuSans-74" x="153.78125"/>
     <use xlink:href="#DejaVuSans-65" x="192.990234"/>
     <use xlink:href="#DejaVuSans-72" x="254.513672"/>
     <use xlink:href="#DejaVuSans-6d" x="293.876953"/>
     <use xlink:href="#DejaVuSans-61" x="391.289062"/>
     <use xlink:href="#DejaVuSans-72" x="452.568359"/>
     <use xlink:href="#DejaVuSans-6b" x="493.681641"/>
     <use xlink:href="#DejaVuSans-20" x="551.591797"/>
     <use xlink:href="#DejaVuSans-43" x="583.378906"/>
     <use xlink:href="#DejaVuSans-6f" x="653.203125"/>
     <use xlink:href="#DejaVuSans-6e" x="714.384766"/>
     <use xlink:href="#DejaVuSans-74" x="777.763672"/>
     <use xlink:href="#DejaVuSans-72" x="816.972656"/>
     <use xlink:href="#DejaVuSans-6f" x="855.835938"/>
     <use xlink:href="#DejaVuSans-6c" x="917.017578"/>
     <use xlink:href="#DejaVuSans-20" x="944.800781"/>
     <use xlink:href="#DejaVuSans-2b" x="976.587891"/>
     <use xlink:href="#DejaVuSans-20" x="1060.376953"/>
     <use xlink:href="#DejaVuSans-44" x="1092.164062"/>
     <use xlink:href="#DejaVuSans-61" x="1169.166016"/>
     <use xlink:href="#DejaVuSans-74" x="1230.445312"/>
     <use xlink:href="#DejaVuSans-61" x="1269.654297"/>
     <use xlink:href="#DejaVuSans-20" x="1330.933594"/>
     <use xlink:href="#DejaVuSans-51" x="1362.720703"/>
     <use xlink:href="#DejaVuSans-75" x="1441.431641"/>
     <use xlink:href="#DejaVuSans-61" x="1504.810547"/>
     <use xlink:href="#DejaVuSans-6c" x="1566.089844"/>
     <use xlink:href="#DejaVuSans-69" x="1593.873047"/>
     <use xlink:href="#DejaVuSans-74" x="1621.65625"/>
     <use xlink:href="#DejaVuSans-79" x="1660.865234"/>
     <use xlink:href="#DejaVuSans-20" x="1720.044922"/>
     <use xlink:href="#DejaVuSans-2b" x="1751.832031"/>
     <use xlink:href="#DejaVuSans-20" x="1835.621094"/>
     <use xlink:href="#DejaVuSans-52" x="1867.408203"/>
     <use xlink:href="#DejaVuSans-75" x="1932.390625"/>
     <use xlink:href="#DejaVuSans-6e" x="1995.769531"/>
     <use xlink:href="#DejaVuSans-20" x="2059.148438"/>
     <use xlink:href="#DejaVuSans-41" x="2090.935547"/>
     <use xlink:href="#DejaVuSans-75" x="2159.34375"/>
     <use xlink:href="#DejaVuSans-64" x="2222.722656"/>
     <use xlink:href="#DejaVuSans-69" x="2286.199219"/>
     <use xlink:href="#DejaVuSans-74" x="2313.982422"/>
    </g>
   </g>
   <g id="patch_8">
    <path d="M 260.3 90.36 
Q 260.3 98.21885 260.3 106.0777 
L 264.3 106.0777 
Q 261.3 112.07885 258.3 118.08 
Q 255.3 112.07885 252.3 106.0777 
L 256.3 106.0777 
Q 256.3 98.21885 256.3 90.36 
L 260.3 90.36 
z
" style="fill: #1f77b4; stroke: #000000; stroke-linecap: round"/>
   </g>
   <g id="patch_9">
    <path d="M 260.3 184.608 
Q 260.3 192.46685 260.3 200.3257 
L 264.3 200.3257 
Q 261.3 206.32685 258.3 212.328 
Q 255.3 206.32685 252.3 200.3257 
L 256.3 200.3257 
Q 256.3 192.46685 256.3 184.608 
L 260.3 184.608 
z
" style="fill: #1f77b4; stroke: #000000; stroke-linecap: round"/>
   </g>
   <g id="patch_10">
    <path d="M 260.3 278.856 
Q 260.3 286.71485 260.3 294.5737 
L 264.3 294.5737 
Q 261.3 300.57485 258.3 306.576 
Q 255.3 300.57485 252.3 294.5737 
L 256.3 294.5737 
Q 256.3 286.71485 256.3 278.856 
L 260.3 278.856 
z
" style="fill: #1f77b4; stroke: #000000; stroke-linecap: round"/>
   </g>
   <g id="patch_11">
    <path d="M 260.3 373.104 
Q 260.3 380.96285 260.3 388.8217 
L 264.3 388.8217 
Q 261.3 394.82285 258.3 400.824 
Q 255.3 394.82285 252.3 388.8217 
L 256.3 388.8217 
Q 256.3 380.96285 256.3 373.104 
L 260.3 373.104 
z
" style="fill: #1f77b4; stroke: #000000; stroke-linecap: round"/>
   </g>
   <g id="patch_12">
    <path d="M 260.3 467.352 
Q 260.3 475.21085 260.3 483.0697 
L 264.3 483.0697 
Q 261.3 489.07085 258.3 495.072 
Q 255.3 489.07085 252.3 483.0697 
L 256.3 483.0697 
Q 256.3 475.21085 256.3 467.352 
L 260.3 467.352 
z
" style="fill: #1f77b4; stroke: #000000; stroke-linecap: round"/>
   </g>
  </g>
 </g>
 <defs>
  <clipPath id="p7a6f4b4129">
   <rect x="7.2" y="7.2" width="502.2" height="609.84"/>
  </clipPath>
 </defs>
</svg>
